{
    "patcher": {
        "fileversion": 1,
        "appversion": {
            "major": 9,
            "minor": 1,
            "revision": 1,
            "architecture": "x64",
            "modernui": 1
        },
        "classnamespace": "box",
        "rect": [ 59.0, 107.0, 1000.0, 730.0 ],
        "boxes": [
            {
                "box": {
                    "border": 0,
                    "filename": "helpdetails.js",
                    "id": "obj-62",
                    "ignoreclick": 1,
                    "jsarguments": [ "hooks.scorereader", 75 ],
                    "maxclass": "jsui",
                    "numinlets": 1,
                    "numoutlets": 1,
                    "outlettype": [ "" ],
                    "parameter_enable": 0,
                    "patching_rect": [ 34.0, 42.0, 440.0, 56.0 ]
                }
            },
            {
                "box": {
                    "id": "obj-9",
                    "linecount": 4,
                    "maxclass": "comment",
                    "numinlets": 1,
                    "numoutlets": 0,
                    "patching_rect": [ 448.0, 39.0, 527.0, 62.0 ],
                    "text": "Note: It would be easier to use ossia score integration. I made this before knowing ossia exists \nThe only advantage of using the score editor and reader function is everything duration is normalized. The score playback duration can be changed to generate different iterations of a piece in a different duration."
                }
            },
            {
                "box": {
                    "id": "obj-2",
                    "linecount": 2,
                    "maxclass": "comment",
                    "numinlets": 1,
                    "numoutlets": 0,
                    "patching_rect": [ 853.0, 600.0, 280.0, 34.0 ],
                    "text": "Change rp-patcher to rp~ due to the usage of curve~ in score editor"
                }
            },
            {
                "box": {
                    "id": "obj-1",
                    "maxclass": "newobj",
                    "numinlets": 1,
                    "numoutlets": 0,
                    "patching_rect": [ 766.0, 673.0, 171.0, 22.0 ],
                    "text": "s test/example-filter/rp-patcher"
                }
            },
            {
                "box": {
                    "id": "obj-8",
                    "maxclass": "message",
                    "numinlets": 2,
                    "numoutlets": 1,
                    "outlettype": [ "" ],
                    "patching_rect": [ 747.0, 613.0, 62.0, 22.0 ],
                    "text": "hooks.rp~"
                }
            },
            {
                "box": {
                    "id": "obj-4",
                    "maxclass": "newobj",
                    "numinlets": 1,
                    "numoutlets": 0,
                    "patching_rect": [ 747.0, 647.0, 161.0, 22.0 ],
                    "text": "s hi/example-filter/rp-patcher"
                }
            },
            {
                "box": {
                    "id": "obj-79",
                    "linecount": 4,
                    "maxclass": "comment",
                    "numinlets": 1,
                    "numoutlets": 0,
                    "patching_rect": [ 891.0, 398.0, 261.03447514772415, 62.0 ],
                    "text": "The reader sends line/curve formatted messages to their respective named receive objects. You may simply use a receive object and a line object and it would just work."
                }
            },
            {
                "box": {
                    "id": "obj-77",
                    "maxclass": "message",
                    "numinlets": 2,
                    "numoutlets": 1,
                    "outlettype": [ "" ],
                    "patching_rect": [ 860.0, 553.0, 50.0, 22.0 ]
                }
            },
            {
                "box": {
                    "id": "obj-13",
                    "maxclass": "newobj",
                    "numinlets": 0,
                    "numoutlets": 1,
                    "outlettype": [ "" ],
                    "patching_rect": [ 891.0, 463.0, 168.0, 22.0 ],
                    "text": "r test-example-filter-input-gain"
                }
            },
            {
                "box": {
                    "id": "obj-53",
                    "linecount": 8,
                    "maxclass": "comment",
                    "numinlets": 1,
                    "numoutlets": 0,
                    "patching_rect": [ 769.0, 142.0, 280.0, 117.0 ],
                    "text": "Playback automatically stops when the time exceeds the duration, but sound will remain. You can press start again to start playback from the starting point of the previous playback\n\nHowever, if you stop with stop/reset button, it sends a global reset message muting hooked patches. Press Load again before starting again"
                }
            },
            {
                "box": {
                    "id": "obj-51",
                    "linecount": 2,
                    "maxclass": "comment",
                    "numinlets": 1,
                    "numoutlets": 0,
                    "patching_rect": [ 526.0, 121.0, 193.0, 34.0 ],
                    "text": "Start Playback, Click Parameters in hooks.helper to observe"
                }
            },
            {
                "box": {
                    "id": "obj-49",
                    "linecount": 2,
                    "maxclass": "comment",
                    "numinlets": 1,
                    "numoutlets": 0,
                    "patching_rect": [ 769.0, 343.0, 152.0, 34.0 ],
                    "text": "Adjust Score Duration and Playback Position"
                }
            },
            {
                "box": {
                    "id": "obj-47",
                    "linecount": 3,
                    "maxclass": "comment",
                    "numinlets": 1,
                    "numoutlets": 0,
                    "patching_rect": [ 237.0, 118.0, 181.0, 48.0 ],
                    "text": "Load All, or just select the sections you wanted to load (Only Once)"
                }
            },
            {
                "box": {
                    "id": "obj-45",
                    "linecount": 2,
                    "maxclass": "comment",
                    "numinlets": 1,
                    "numoutlets": 0,
                    "patching_rect": [ 769.0, 275.0, 280.0, 34.0 ],
                    "text": "Enter Dict reference name\nexample is premade for testing"
                }
            },
            {
                "box": {
                    "bgmode": 0,
                    "border": 0,
                    "clickthrough": 0,
                    "enablehscroll": 0,
                    "enablevscroll": 0,
                    "id": "obj-7",
                    "lockeddragscroll": 0,
                    "lockedsize": 0,
                    "maxclass": "bpatcher",
                    "name": "hooks.scorereader.maxpat",
                    "numinlets": 6,
                    "numoutlets": 0,
                    "offset": [ 0.0, 0.0 ],
                    "patching_rect": [ 0.0, 161.0, 736.2307109832764, 564.5384941101074 ],
                    "viewvisibility": 1
                }
            },
            {
                "box": {
                    "id": "obj-61",
                    "maxclass": "newobj",
                    "numinlets": 3,
                    "numoutlets": 2,
                    "outlettype": [ "", "bang" ],
                    "patching_rect": [ 891.0, 508.0, 41.0, 22.0 ],
                    "text": "line 0."
                }
            },
            {
                "box": {
                    "background": 1,
                    "bgcolor": [ 1.0, 0.788235, 0.470588, 1.0 ],
                    "fontface": 1,
                    "fontlink": 1,
                    "hint": "",
                    "id": "obj-52",
                    "ignoreclick": 1,
                    "legacytextcolor": 1,
                    "maxclass": "textbutton",
                    "numinlets": 1,
                    "numoutlets": 3,
                    "outlettype": [ "", "", "int" ],
                    "parameter_enable": 0,
                    "patching_rect": [ 742.0, 174.0, 22.673827648162842, 21.798828125 ],
                    "rounded": 60.0,
                    "text": "6",
                    "textcolor": [ 0.34902, 0.34902, 0.34902, 1.0 ]
                }
            },
            {
                "box": {
                    "background": 1,
                    "bgcolor": [ 1.0, 0.788235, 0.470588, 1.0 ],
                    "fontface": 1,
                    "hint": "",
                    "id": "obj-3",
                    "ignoreclick": 1,
                    "legacytextcolor": 1,
                    "maxclass": "textbutton",
                    "numinlets": 1,
                    "numoutlets": 3,
                    "outlettype": [ "", "", "int" ],
                    "parameter_enable": 0,
                    "patching_rect": [ 826.0, 607.0, 20.0, 20.0 ],
                    "rounded": 60.0,
                    "text": "1",
                    "textcolor": [ 0.34902, 0.34902, 0.34902, 1.0 ]
                }
            },
            {
                "box": {
                    "background": 1,
                    "bgcolor": [ 1.0, 0.788235, 0.470588, 1.0 ],
                    "fontface": 1,
                    "fontsize": 12.0,
                    "hint": "",
                    "id": "obj-50",
                    "ignoreclick": 1,
                    "legacytextcolor": 1,
                    "maxclass": "textbutton",
                    "numinlets": 1,
                    "numoutlets": 3,
                    "outlettype": [ "", "", "int" ],
                    "parameter_enable": 0,
                    "patching_rect": [ 500.0, 118.0, 24.0, 25.0 ],
                    "rounded": 60.0,
                    "text": "5",
                    "textcolor": [ 0.34902, 0.34902, 0.34902, 1.0 ]
                }
            },
            {
                "box": {
                    "background": 1,
                    "bgcolor": [ 1.0, 0.788235, 0.470588, 1.0 ],
                    "fontface": 1,
                    "hint": "",
                    "id": "obj-48",
                    "ignoreclick": 1,
                    "legacytextcolor": 1,
                    "maxclass": "textbutton",
                    "numinlets": 1,
                    "numoutlets": 3,
                    "outlettype": [ "", "", "int" ],
                    "parameter_enable": 0,
                    "patching_rect": [ 740.0, 340.0, 24.0, 25.0 ],
                    "rounded": 60.0,
                    "text": "3",
                    "textcolor": [ 0.34902, 0.34902, 0.34902, 1.0 ]
                }
            },
            {
                "box": {
                    "background": 1,
                    "bgcolor": [ 1.0, 0.788235, 0.470588, 1.0 ],
                    "fontface": 1,
                    "hint": "",
                    "id": "obj-46",
                    "ignoreclick": 1,
                    "legacytextcolor": 1,
                    "maxclass": "textbutton",
                    "numinlets": 1,
                    "numoutlets": 3,
                    "outlettype": [ "", "", "int" ],
                    "parameter_enable": 0,
                    "patching_rect": [ 211.0, 118.0, 24.0, 25.0 ],
                    "rounded": 60.0,
                    "text": "4",
                    "textcolor": [ 0.34902, 0.34902, 0.34902, 1.0 ]
                }
            },
            {
                "box": {
                    "background": 1,
                    "bgcolor": [ 1.0, 0.788235, 0.470588, 1.0 ],
                    "fontface": 1,
                    "hint": "",
                    "id": "obj-43",
                    "ignoreclick": 1,
                    "legacytextcolor": 1,
                    "maxclass": "textbutton",
                    "numinlets": 1,
                    "numoutlets": 3,
                    "outlettype": [ "", "", "int" ],
                    "parameter_enable": 0,
                    "patching_rect": [ 742.0, 275.0, 20.0, 20.0 ],
                    "rounded": 60.0,
                    "text": "2",
                    "textcolor": [ 0.34902, 0.34902, 0.34902, 1.0 ]
                }
            }
        ],
        "lines": [
            {
                "patchline": {
                    "destination": [ "obj-61", 0 ],
                    "source": [ "obj-13", 0 ]
                }
            },
            {
                "patchline": {
                    "destination": [ "obj-77", 1 ],
                    "source": [ "obj-61", 0 ]
                }
            },
            {
                "patchline": {
                    "destination": [ "obj-1", 0 ],
                    "order": 0,
                    "source": [ "obj-8", 0 ]
                }
            },
            {
                "patchline": {
                    "destination": [ "obj-4", 0 ],
                    "order": 1,
                    "source": [ "obj-8", 0 ]
                }
            }
        ],
        "autosave": 0
    }
}