{
    "patcher": {
        "fileversion": 1,
        "appversion": {
            "major": 9,
            "minor": 1,
            "revision": 1,
            "architecture": "x64",
            "modernui": 1
        },
        "classnamespace": "box",
        "rect": [ 34.0, 77.0, 1639.0, 802.0 ],
        "boxes": [
            {
                "box": {
                    "id": "obj-11",
                    "maxclass": "newobj",
                    "numinlets": 1,
                    "numoutlets": 1,
                    "outlettype": [ "" ],
                    "patching_rect": [ 628.0, 656.0, 72.0, 22.0 ],
                    "text": "prepend set"
                }
            },
            {
                "box": {
                    "id": "obj-12",
                    "maxclass": "newobj",
                    "numinlets": 2,
                    "numoutlets": 2,
                    "outlettype": [ "", "" ],
                    "patching_rect": [ 628.0, 629.0, 135.0, 22.0 ],
                    "text": "combine / s @triggers 1"
                }
            },
            {
                "box": {
                    "id": "obj-4",
                    "maxclass": "newobj",
                    "numinlets": 1,
                    "numoutlets": 2,
                    "outlettype": [ "", "" ],
                    "patching_rect": [ 770.731725692749, 629.0, 153.0, 22.0 ],
                    "text": "hooks.name set osc-output"
                }
            },
            {
                "box": {
                    "id": "obj-17",
                    "maxclass": "newobj",
                    "numinlets": 1,
                    "numoutlets": 1,
                    "outlettype": [ "" ],
                    "patching_rect": [ 549.0, 812.0, 73.0, 22.0 ],
                    "text": "pattrforward"
                }
            },
            {
                "box": {
                    "id": "obj-16",
                    "maxclass": "newobj",
                    "numinlets": 2,
                    "numoutlets": 1,
                    "outlettype": [ "" ],
                    "patching_rect": [ 549.0, 740.0, 121.0, 22.0 ],
                    "text": "sprintf send ::%s::%s"
                }
            },
            {
                "box": {
                    "id": "obj-9",
                    "maxclass": "newobj",
                    "numinlets": 3,
                    "numoutlets": 3,
                    "outlettype": [ "bang", "bang", "" ],
                    "patching_rect": [ 362.0, 273.0, 44.0, 22.0 ],
                    "text": "sel 0 1"
                }
            },
            {
                "box": {
                    "id": "obj-26",
                    "maxclass": "message",
                    "numinlets": 2,
                    "numoutlets": 1,
                    "outlettype": [ "" ],
                    "patching_rect": [ 362.0, 301.0, 41.0, 22.0 ],
                    "text": "pause"
                }
            },
            {
                "box": {
                    "id": "obj-5",
                    "maxclass": "message",
                    "numinlets": 2,
                    "numoutlets": 1,
                    "outlettype": [ "" ],
                    "patching_rect": [ 375.0, 325.0, 49.0, 22.0 ],
                    "text": "resume"
                }
            },
            {
                "box": {
                    "id": "obj-49",
                    "maxclass": "message",
                    "numinlets": 2,
                    "numoutlets": 1,
                    "outlettype": [ "" ],
                    "patching_rect": [ 297.0, 310.0, 31.0, 22.0 ],
                    "text": "stop"
                }
            },
            {
                "box": {
                    "id": "obj-50",
                    "maxclass": "newobj",
                    "numinlets": 0,
                    "numoutlets": 1,
                    "outlettype": [ "" ],
                    "patching_rect": [ 297.0, 286.0, 78.0, 22.0 ],
                    "text": "r hooks/reset"
                }
            },
            {
                "box": {
                    "id": "obj-8",
                    "maxclass": "newobj",
                    "numinlets": 0,
                    "numoutlets": 1,
                    "outlettype": [ "" ],
                    "patching_rect": [ 362.0, 235.0, 161.0, 22.0 ],
                    "text": "r hooks/score/pauseResume"
                }
            },
            {
                "box": {
                    "id": "obj-57",
                    "maxclass": "newobj",
                    "numinlets": 1,
                    "numoutlets": 1,
                    "outlettype": [ "" ],
                    "patching_rect": [ 559.756110906601, 452.43903517723083, 100.0, 22.0 ],
                    "text": "loadmess mute 1"
                }
            },
            {
                "box": {
                    "id": "obj-58",
                    "maxclass": "newobj",
                    "numinlets": 1,
                    "numoutlets": 3,
                    "outlettype": [ "int", "int", "int" ],
                    "patching_rect": [ 559.756110906601, 490.24391412734985, 56.0, 22.0 ],
                    "text": "thispoly~"
                }
            },
            {
                "box": {
                    "id": "obj-55",
                    "maxclass": "newobj",
                    "numinlets": 1,
                    "numoutlets": 1,
                    "outlettype": [ "" ],
                    "patching_rect": [ 238.5, 706.0, 29.0, 22.0 ],
                    "text": "thru"
                }
            },
            {
                "box": {
                    "id": "obj-52",
                    "maxclass": "newobj",
                    "numinlets": 1,
                    "numoutlets": 1,
                    "outlettype": [ "" ],
                    "patching_rect": [ 1068.2927083969116, 25.82926893234253, 28.0, 22.0 ],
                    "text": "in 5"
                }
            },
            {
                "box": {
                    "id": "obj-54",
                    "maxclass": "comment",
                    "numinlets": 1,
                    "numoutlets": 0,
                    "patching_rect": [ 982.9268527030945, 27.048781156539917, 81.0, 20.0 ],
                    "text": "String Input"
                }
            },
            {
                "box": {
                    "id": "obj-51",
                    "maxclass": "newobj",
                    "numinlets": 1,
                    "numoutlets": 1,
                    "outlettype": [ "" ],
                    "patching_rect": [ 950.000022649765, 27.048781156539917, 28.0, 22.0 ],
                    "text": "in 3"
                }
            },
            {
                "box": {
                    "id": "obj-38",
                    "maxclass": "newobj",
                    "numinlets": 1,
                    "numoutlets": 2,
                    "outlettype": [ "", "" ],
                    "patching_rect": [ 950.000022649765, 62.41463565826416, 93.0, 22.0 ],
                    "text": "hooks.name set"
                }
            },
            {
                "box": {
                    "id": "obj-48",
                    "maxclass": "newobj",
                    "numinlets": 1,
                    "numoutlets": 1,
                    "outlettype": [ "" ],
                    "patching_rect": [ 950.000022649765, 123.39024686813354, 47.0, 22.0 ],
                    "text": "receive"
                }
            },
            {
                "box": {
                    "id": "obj-47",
                    "maxclass": "newobj",
                    "numinlets": 1,
                    "numoutlets": 0,
                    "patching_rect": [ 770.731725692749, 812.1951413154602, 129.0, 22.0 ],
                    "text": "s hooks/global-osc-out"
                }
            },
            {
                "box": {
                    "id": "obj-46",
                    "maxclass": "newobj",
                    "numinlets": 1,
                    "numoutlets": 1,
                    "outlettype": [ "" ],
                    "patching_rect": [ 770.731725692749, 784.1463601589203, 53.0, 22.0 ],
                    "text": "prepend"
                }
            },
            {
                "box": {
                    "id": "obj-44",
                    "maxclass": "newobj",
                    "numinlets": 2,
                    "numoutlets": 1,
                    "outlettype": [ "" ],
                    "patching_rect": [ 770.731725692749, 751.2195301055908, 32.0, 22.0 ],
                    "text": "gate"
                }
            },
            {
                "box": {
                    "id": "obj-40",
                    "maxclass": "newobj",
                    "numinlets": 1,
                    "numoutlets": 2,
                    "outlettype": [ "", "" ],
                    "patching_rect": [ 770.731725692749, 584.0, 163.0, 22.0 ],
                    "text": "hooks.name none osc-output"
                }
            },
            {
                "box": {
                    "id": "obj-43",
                    "maxclass": "newobj",
                    "numinlets": 1,
                    "numoutlets": 1,
                    "outlettype": [ "" ],
                    "patching_rect": [ 770.731725692749, 674.3902599811554, 47.0, 22.0 ],
                    "text": "receive"
                }
            },
            {
                "box": {
                    "id": "obj-39",
                    "maxclass": "comment",
                    "numinlets": 1,
                    "numoutlets": 0,
                    "patching_rect": [ 792.682945728302, 28.048781156539917, 150.0, 20.0 ],
                    "text": "optional: OSC Input"
                }
            },
            {
                "box": {
                    "id": "obj-37",
                    "maxclass": "newobj",
                    "numinlets": 2,
                    "numoutlets": 1,
                    "outlettype": [ "" ],
                    "patching_rect": [ 669.5122110843658, 71.95122122764587, 114.0, 22.0 ],
                    "text": "sprintf set 1 /%s/%s"
                }
            },
            {
                "box": {
                    "id": "obj-36",
                    "maxclass": "newobj",
                    "numinlets": 1,
                    "numoutlets": 2,
                    "outlettype": [ "", "FullPacket" ],
                    "patching_rect": [ 652.4390399456024, 114.63414907455444, 62.0, 22.0 ],
                    "text": "o.route /hi"
                }
            },
            {
                "box": {
                    "id": "obj-34",
                    "maxclass": "newobj",
                    "numinlets": 0,
                    "numoutlets": 1,
                    "outlettype": [ "" ],
                    "patching_rect": [ 652.4390399456024, 26.82926893234253, 119.0, 22.0 ],
                    "text": "r hooks/global-osc-in"
                }
            },
            {
                "box": {
                    "id": "obj-35",
                    "maxclass": "newobj",
                    "numinlets": 1,
                    "numoutlets": 1,
                    "outlettype": [ "" ],
                    "patching_rect": [ 575.0, 27.0, 28.0, 22.0 ],
                    "saved_object_attributes": {
                        "attr_comment": "",
                        "c": ""
                    },
                    "text": "in 4"
                }
            },
            {
                "box": {
                    "attr": "output_range",
                    "id": "obj-33",
                    "maxclass": "attrui",
                    "numinlets": 1,
                    "numoutlets": 1,
                    "outlettype": [ "" ],
                    "parameter_enable": 0,
                    "patching_rect": [ 55.0, 424.0, 150.0, 22.0 ]
                }
            },
            {
                "box": {
                    "attr": "input_range",
                    "id": "obj-42",
                    "maxclass": "attrui",
                    "numinlets": 1,
                    "numoutlets": 1,
                    "outlettype": [ "" ],
                    "parameter_enable": 0,
                    "patching_rect": [ 48.0, 453.0, 150.0, 22.0 ]
                }
            },
            {
                "box": {
                    "attr": "function",
                    "id": "obj-53",
                    "maxclass": "attrui",
                    "numinlets": 1,
                    "numoutlets": 1,
                    "outlettype": [ "" ],
                    "parameter_enable": 0,
                    "patching_rect": [ 212.0, 424.0, 163.0, 22.0 ]
                }
            },
            {
                "box": {
                    "id": "obj-56",
                    "maxclass": "newobj",
                    "numinlets": 1,
                    "numoutlets": 2,
                    "outlettype": [ "", "" ],
                    "patcher": {
                        "fileversion": 1,
                        "appversion": {
                            "major": 9,
                            "minor": 1,
                            "revision": 1,
                            "architecture": "x64",
                            "modernui": 1
                        },
                        "classnamespace": "box",
                        "rect": [ 59.0, 107.0, 1000.0, 730.0 ],
                        "boxes": [
                            {
                                "box": {
                                    "comment": "",
                                    "id": "obj-1",
                                    "index": 2,
                                    "maxclass": "outlet",
                                    "numinlets": 1,
                                    "numoutlets": 0,
                                    "patching_rect": [ 173.0, 508.0, 30.0, 30.0 ]
                                }
                            },
                            {
                                "box": {
                                    "id": "obj-50",
                                    "maxclass": "newobj",
                                    "numinlets": 1,
                                    "numoutlets": 1,
                                    "outlettype": [ "" ],
                                    "patching_rect": [ 50.0, 100.0, 29.0, 22.0 ],
                                    "text": "thru"
                                }
                            },
                            {
                                "box": {
                                    "id": "obj-49",
                                    "maxclass": "newobj",
                                    "numinlets": 3,
                                    "numoutlets": 2,
                                    "outlettype": [ "", "bang" ],
                                    "patching_rect": [ 50.0, 345.0, 41.0, 22.0 ],
                                    "text": "line 0."
                                }
                            },
                            {
                                "box": {
                                    "id": "obj-48",
                                    "maxclass": "newobj",
                                    "numinlets": 3,
                                    "numoutlets": 2,
                                    "outlettype": [ "", "bang" ],
                                    "patching_rect": [ 86.0, 369.0, 41.0, 22.0 ],
                                    "text": "line 1."
                                }
                            },
                            {
                                "box": {
                                    "id": "obj-47",
                                    "maxclass": "newobj",
                                    "numinlets": 2,
                                    "numoutlets": 1,
                                    "outlettype": [ "" ],
                                    "patching_rect": [ 50.0, 411.0, 55.0, 22.0 ],
                                    "text": "pak 0. 1."
                                }
                            },
                            {
                                "box": {
                                    "id": "obj-44",
                                    "maxclass": "newobj",
                                    "numinlets": 1,
                                    "numoutlets": 1,
                                    "outlettype": [ "" ],
                                    "patching_rect": [ 86.0, 234.0, 124.0, 22.0 ],
                                    "text": "sprintf %s-rp-range-hi"
                                }
                            },
                            {
                                "box": {
                                    "id": "obj-45",
                                    "maxclass": "newobj",
                                    "numinlets": 1,
                                    "numoutlets": 1,
                                    "outlettype": [ "" ],
                                    "patching_rect": [ 86.0, 262.0, 72.0, 22.0 ],
                                    "text": "prepend set"
                                }
                            },
                            {
                                "box": {
                                    "id": "obj-46",
                                    "maxclass": "newobj",
                                    "numinlets": 1,
                                    "numoutlets": 1,
                                    "outlettype": [ "" ],
                                    "patching_rect": [ 86.0, 292.0, 47.0, 22.0 ],
                                    "text": "receive"
                                }
                            },
                            {
                                "box": {
                                    "id": "obj-43",
                                    "maxclass": "newobj",
                                    "numinlets": 3,
                                    "numoutlets": 2,
                                    "outlettype": [ "", "bang" ],
                                    "patching_rect": [ 173.0, 411.0, 40.0, 22.0 ],
                                    "text": "line 0"
                                }
                            },
                            {
                                "box": {
                                    "id": "obj-41",
                                    "maxclass": "newobj",
                                    "numinlets": 1,
                                    "numoutlets": 1,
                                    "outlettype": [ "" ],
                                    "patching_rect": [ 50.0, 149.0, 124.0, 22.0 ],
                                    "text": "sprintf %s-rp-range-lo"
                                }
                            },
                            {
                                "box": {
                                    "id": "obj-40",
                                    "maxclass": "newobj",
                                    "numinlets": 1,
                                    "numoutlets": 1,
                                    "outlettype": [ "" ],
                                    "patching_rect": [ 173.0, 262.0, 106.0, 22.0 ],
                                    "text": "sprintf %s-rp-ease"
                                }
                            },
                            {
                                "box": {
                                    "id": "obj-38",
                                    "maxclass": "newobj",
                                    "numinlets": 1,
                                    "numoutlets": 1,
                                    "outlettype": [ "" ],
                                    "patching_rect": [ 173.0, 289.0, 72.0, 22.0 ],
                                    "text": "prepend set"
                                }
                            },
                            {
                                "box": {
                                    "id": "obj-39",
                                    "maxclass": "newobj",
                                    "numinlets": 1,
                                    "numoutlets": 1,
                                    "outlettype": [ "" ],
                                    "patching_rect": [ 173.0, 319.0, 47.0, 22.0 ],
                                    "text": "receive"
                                }
                            },
                            {
                                "box": {
                                    "id": "obj-37",
                                    "maxclass": "newobj",
                                    "numinlets": 1,
                                    "numoutlets": 1,
                                    "outlettype": [ "" ],
                                    "patching_rect": [ 50.0, 175.0, 72.0, 22.0 ],
                                    "text": "prepend set"
                                }
                            },
                            {
                                "box": {
                                    "id": "obj-36",
                                    "maxclass": "newobj",
                                    "numinlets": 1,
                                    "numoutlets": 1,
                                    "outlettype": [ "" ],
                                    "patching_rect": [ 50.0, 202.0, 47.0, 22.0 ],
                                    "text": "receive"
                                }
                            },
                            {
                                "box": {
                                    "comment": "",
                                    "id": "obj-54",
                                    "index": 1,
                                    "maxclass": "inlet",
                                    "numinlets": 0,
                                    "numoutlets": 1,
                                    "outlettype": [ "" ],
                                    "patching_rect": [ 50.0, 40.0, 30.0, 30.0 ]
                                }
                            },
                            {
                                "box": {
                                    "comment": "",
                                    "id": "obj-55",
                                    "index": 1,
                                    "maxclass": "outlet",
                                    "numinlets": 1,
                                    "numoutlets": 0,
                                    "patching_rect": [ 49.5, 508.0, 30.0, 30.0 ]
                                }
                            }
                        ],
                        "lines": [
                            {
                                "patchline": {
                                    "destination": [ "obj-49", 0 ],
                                    "source": [ "obj-36", 0 ]
                                }
                            },
                            {
                                "patchline": {
                                    "destination": [ "obj-36", 0 ],
                                    "source": [ "obj-37", 0 ]
                                }
                            },
                            {
                                "patchline": {
                                    "destination": [ "obj-39", 0 ],
                                    "source": [ "obj-38", 0 ]
                                }
                            },
                            {
                                "patchline": {
                                    "destination": [ "obj-43", 0 ],
                                    "source": [ "obj-39", 0 ]
                                }
                            },
                            {
                                "patchline": {
                                    "destination": [ "obj-38", 0 ],
                                    "source": [ "obj-40", 0 ]
                                }
                            },
                            {
                                "patchline": {
                                    "destination": [ "obj-37", 0 ],
                                    "source": [ "obj-41", 0 ]
                                }
                            },
                            {
                                "patchline": {
                                    "destination": [ "obj-1", 0 ],
                                    "source": [ "obj-43", 0 ]
                                }
                            },
                            {
                                "patchline": {
                                    "destination": [ "obj-45", 0 ],
                                    "source": [ "obj-44", 0 ]
                                }
                            },
                            {
                                "patchline": {
                                    "destination": [ "obj-46", 0 ],
                                    "source": [ "obj-45", 0 ]
                                }
                            },
                            {
                                "patchline": {
                                    "destination": [ "obj-48", 0 ],
                                    "source": [ "obj-46", 0 ]
                                }
                            },
                            {
                                "patchline": {
                                    "destination": [ "obj-55", 0 ],
                                    "source": [ "obj-47", 0 ]
                                }
                            },
                            {
                                "patchline": {
                                    "destination": [ "obj-47", 1 ],
                                    "source": [ "obj-48", 0 ]
                                }
                            },
                            {
                                "patchline": {
                                    "destination": [ "obj-47", 0 ],
                                    "source": [ "obj-49", 0 ]
                                }
                            },
                            {
                                "patchline": {
                                    "destination": [ "obj-40", 0 ],
                                    "midpoints": [ 59.5, 136.0, 182.5, 136.0 ],
                                    "order": 0,
                                    "source": [ "obj-50", 0 ]
                                }
                            },
                            {
                                "patchline": {
                                    "destination": [ "obj-41", 0 ],
                                    "midpoints": [ 59.5, 135.5, 59.5, 135.5 ],
                                    "order": 2,
                                    "source": [ "obj-50", 0 ]
                                }
                            },
                            {
                                "patchline": {
                                    "destination": [ "obj-44", 0 ],
                                    "midpoints": [ 59.5, 134.0, 95.5, 134.0 ],
                                    "order": 1,
                                    "source": [ "obj-50", 0 ]
                                }
                            },
                            {
                                "patchline": {
                                    "destination": [ "obj-50", 0 ],
                                    "source": [ "obj-54", 0 ]
                                }
                            }
                        ]
                    },
                    "patching_rect": [ 77.0, 365.0, 91.0, 22.0 ],
                    "text": "p ease-controls"
                }
            },
            {
                "box": {
                    "id": "obj-32",
                    "maxclass": "newobj",
                    "numinlets": 1,
                    "numoutlets": 1,
                    "outlettype": [ "" ],
                    "patching_rect": [ 239.0, 511.0, 35.0, 22.0 ],
                    "text": "ease"
                }
            },
            {
                "box": {
                    "id": "obj-20",
                    "linecount": 7,
                    "maxclass": "comment",
                    "numinlets": 1,
                    "numoutlets": 0,
                    "patching_rect": [ 687.8048944473267, 308.5365927219391, 200.0, 103.0 ],
                    "text": "rposc (receive pattr with osc)\n\nHook Connection from Score Reader to Line/Curve~ Objects and then to pattr objects in subpatcher\n\nHou Lam Wu (Eagle) 2026"
                }
            },
            {
                "box": {
                    "id": "obj-68",
                    "maxclass": "newobj",
                    "numinlets": 1,
                    "numoutlets": 2,
                    "outlettype": [ "", "" ],
                    "patching_rect": [ 239.0, 122.0, 93.0, 22.0 ],
                    "text": "hooks.name set"
                }
            },
            {
                "box": {
                    "id": "obj-25",
                    "maxclass": "newobj",
                    "numinlets": 1,
                    "numoutlets": 1,
                    "outlettype": [ "" ],
                    "patching_rect": [ 239.0, 27.0, 28.0, 22.0 ],
                    "saved_object_attributes": {
                        "attr_comment": "Settings",
                        "c": "Settings"
                    },
                    "text": "in 2"
                }
            },
            {
                "box": {
                    "id": "obj-14",
                    "maxclass": "message",
                    "numinlets": 2,
                    "numoutlets": 1,
                    "outlettype": [ "" ],
                    "patching_rect": [ 417.0, 616.0, 125.0, 22.0 ],
                    "text": "set 99999999999999."
                }
            },
            {
                "box": {
                    "id": "obj-10",
                    "maxclass": "newobj",
                    "numinlets": 0,
                    "numoutlets": 1,
                    "outlettype": [ "" ],
                    "patching_rect": [ 417.0, 584.0, 78.0, 22.0 ],
                    "text": "r hooks/reset"
                }
            },
            {
                "box": {
                    "id": "obj-6",
                    "maxclass": "newobj",
                    "numinlets": 1,
                    "numoutlets": 3,
                    "outlettype": [ "", "int", "int" ],
                    "patching_rect": [ 239.0, 674.0, 128.0, 22.0 ],
                    "text": "change 99999999999."
                }
            },
            {
                "box": {
                    "id": "obj-7",
                    "maxclass": "newobj",
                    "numinlets": 2,
                    "numoutlets": 1,
                    "outlettype": [ "float" ],
                    "patching_rect": [ 239.0, 618.0, 29.5, 22.0 ],
                    "text": "f"
                }
            },
            {
                "box": {
                    "id": "obj-23",
                    "maxclass": "newobj",
                    "numinlets": 3,
                    "numoutlets": 2,
                    "outlettype": [ "", "bang" ],
                    "patching_rect": [ 239.0, 365.0, 41.0, 22.0 ],
                    "text": "line 0."
                }
            },
            {
                "box": {
                    "id": "obj-1",
                    "maxclass": "newobj",
                    "numinlets": 1,
                    "numoutlets": 1,
                    "outlettype": [ "" ],
                    "patching_rect": [ 239.0, 201.0, 47.0, 22.0 ],
                    "text": "receive"
                }
            },
            {
                "box": {
                    "id": "obj-3",
                    "maxclass": "newobj",
                    "numinlets": 1,
                    "numoutlets": 0,
                    "patching_rect": [ 239.024395942688, 812.1951413154602, 35.0, 22.0 ],
                    "text": "out 1"
                }
            },
            {
                "box": {
                    "id": "obj-2",
                    "maxclass": "newobj",
                    "numinlets": 1,
                    "numoutlets": 1,
                    "outlettype": [ "" ],
                    "patching_rect": [ 141.0, 27.0, 28.0, 22.0 ],
                    "saved_object_attributes": {
                        "attr_comment": [ "Bang", "for", "output" ],
                        "c": [ "Bang", "for", "output" ]
                    },
                    "text": "in 1"
                }
            }
        ],
        "lines": [
            {
                "patchline": {
                    "destination": [ "obj-23", 0 ],
                    "source": [ "obj-1", 0 ]
                }
            },
            {
                "patchline": {
                    "destination": [ "obj-14", 0 ],
                    "source": [ "obj-10", 0 ]
                }
            },
            {
                "patchline": {
                    "destination": [ "obj-46", 0 ],
                    "midpoints": [ 637.5, 774.4390351772308, 780.231725692749, 774.4390351772308 ],
                    "source": [ "obj-11", 0 ]
                }
            },
            {
                "patchline": {
                    "destination": [ "obj-11", 0 ],
                    "source": [ "obj-12", 0 ]
                }
            },
            {
                "patchline": {
                    "destination": [ "obj-6", 0 ],
                    "midpoints": [ 426.5, 664.5, 248.5, 664.5 ],
                    "source": [ "obj-14", 0 ]
                }
            },
            {
                "patchline": {
                    "destination": [ "obj-17", 0 ],
                    "source": [ "obj-16", 0 ]
                }
            },
            {
                "patchline": {
                    "destination": [ "obj-7", 0 ],
                    "midpoints": [ 150.5, 599.1097555160522, 248.5, 599.1097555160522 ],
                    "source": [ "obj-2", 0 ]
                }
            },
            {
                "patchline": {
                    "destination": [ "obj-32", 0 ],
                    "source": [ "obj-23", 0 ]
                }
            },
            {
                "patchline": {
                    "destination": [ "obj-16", 0 ],
                    "midpoints": [ 248.5, 65.5, 558.5, 65.5 ],
                    "order": 2,
                    "source": [ "obj-25", 0 ]
                }
            },
            {
                "patchline": {
                    "destination": [ "obj-37", 0 ],
                    "midpoints": [ 248.5, 67.0, 679.0122110843658, 67.0 ],
                    "order": 1,
                    "source": [ "obj-25", 0 ]
                }
            },
            {
                "patchline": {
                    "destination": [ "obj-40", 0 ],
                    "midpoints": [ 248.5, 65.5, 780.231725692749, 65.5 ],
                    "order": 0,
                    "source": [ "obj-25", 0 ]
                }
            },
            {
                "patchline": {
                    "destination": [ "obj-68", 0 ],
                    "midpoints": [ 248.5, 85.5, 248.5, 85.5 ],
                    "order": 3,
                    "source": [ "obj-25", 0 ]
                }
            },
            {
                "patchline": {
                    "destination": [ "obj-23", 0 ],
                    "midpoints": [ 371.5, 344.0, 248.5, 344.0 ],
                    "source": [ "obj-26", 0 ]
                }
            },
            {
                "patchline": {
                    "destination": [ "obj-7", 0 ],
                    "source": [ "obj-32", 0 ]
                }
            },
            {
                "patchline": {
                    "destination": [ "obj-32", 0 ],
                    "midpoints": [ 64.5, 478.5, 248.5, 478.5 ],
                    "source": [ "obj-33", 0 ]
                }
            },
            {
                "patchline": {
                    "destination": [ "obj-36", 0 ],
                    "source": [ "obj-34", 0 ]
                }
            },
            {
                "patchline": {
                    "destination": [ "obj-23", 0 ],
                    "midpoints": [ 584.5, 360.0, 248.5, 360.0 ],
                    "source": [ "obj-35", 0 ]
                }
            },
            {
                "patchline": {
                    "destination": [ "obj-23", 0 ],
                    "midpoints": [ 661.9390399456024, 257.39024448394775, 248.5, 257.39024448394775 ],
                    "source": [ "obj-36", 0 ]
                }
            },
            {
                "patchline": {
                    "destination": [ "obj-36", 0 ],
                    "midpoints": [ 679.0122110843658, 103.93903517723083, 661.9390399456024, 103.93903517723083 ],
                    "source": [ "obj-37", 0 ]
                }
            },
            {
                "patchline": {
                    "destination": [ "obj-40", 0 ],
                    "midpoints": [ 959.500022649765, 101.47561776638031, 780.231725692749, 101.47561776638031 ],
                    "order": 1,
                    "source": [ "obj-38", 0 ]
                }
            },
            {
                "patchline": {
                    "destination": [ "obj-48", 0 ],
                    "order": 0,
                    "source": [ "obj-38", 0 ]
                }
            },
            {
                "patchline": {
                    "destination": [ "obj-43", 0 ],
                    "source": [ "obj-4", 0 ]
                }
            },
            {
                "patchline": {
                    "destination": [ "obj-12", 1 ],
                    "midpoints": [ 780.231725692749, 617.5, 753.5, 617.5 ],
                    "order": 1,
                    "source": [ "obj-40", 0 ]
                }
            },
            {
                "patchline": {
                    "destination": [ "obj-4", 0 ],
                    "order": 0,
                    "source": [ "obj-40", 0 ]
                }
            },
            {
                "patchline": {
                    "destination": [ "obj-32", 0 ],
                    "midpoints": [ 57.5, 493.0, 248.5, 493.0 ],
                    "source": [ "obj-42", 0 ]
                }
            },
            {
                "patchline": {
                    "destination": [ "obj-44", 0 ],
                    "source": [ "obj-43", 0 ]
                }
            },
            {
                "patchline": {
                    "destination": [ "obj-46", 0 ],
                    "source": [ "obj-44", 0 ]
                }
            },
            {
                "patchline": {
                    "destination": [ "obj-47", 0 ],
                    "source": [ "obj-46", 0 ]
                }
            },
            {
                "patchline": {
                    "destination": [ "obj-55", 0 ],
                    "midpoints": [ 959.500022649765, 700.0, 248.0, 700.0 ],
                    "source": [ "obj-48", 0 ]
                }
            },
            {
                "patchline": {
                    "destination": [ "obj-23", 0 ],
                    "midpoints": [ 306.5, 348.5, 248.5, 348.5 ],
                    "source": [ "obj-49", 0 ]
                }
            },
            {
                "patchline": {
                    "destination": [ "obj-23", 0 ],
                    "midpoints": [ 384.5, 356.0, 248.5, 356.0 ],
                    "source": [ "obj-5", 0 ]
                }
            },
            {
                "patchline": {
                    "destination": [ "obj-49", 0 ],
                    "source": [ "obj-50", 0 ]
                }
            },
            {
                "patchline": {
                    "destination": [ "obj-16", 0 ],
                    "midpoints": [ 959.500022649765, 553.52439057827, 558.5, 553.52439057827 ],
                    "order": 2,
                    "source": [ "obj-51", 0 ]
                }
            },
            {
                "patchline": {
                    "destination": [ "obj-37", 0 ],
                    "midpoints": [ 959.500022649765, 58.939035177230835, 679.0122110843658, 58.939035177230835 ],
                    "order": 1,
                    "source": [ "obj-51", 0 ]
                }
            },
            {
                "patchline": {
                    "destination": [ "obj-38", 0 ],
                    "order": 0,
                    "source": [ "obj-51", 0 ]
                }
            },
            {
                "patchline": {
                    "destination": [ "obj-55", 0 ],
                    "midpoints": [ 1077.7927083969116, 699.0, 248.0, 699.0 ],
                    "source": [ "obj-52", 0 ]
                }
            },
            {
                "patchline": {
                    "destination": [ "obj-32", 0 ],
                    "source": [ "obj-53", 0 ]
                }
            },
            {
                "patchline": {
                    "destination": [ "obj-17", 0 ],
                    "midpoints": [ 248.0, 770.0, 558.5, 770.0 ],
                    "order": 1,
                    "source": [ "obj-55", 0 ]
                }
            },
            {
                "patchline": {
                    "destination": [ "obj-3", 0 ],
                    "midpoints": [ 248.0, 745.0, 248.524395942688, 745.0 ],
                    "order": 2,
                    "source": [ "obj-55", 0 ]
                }
            },
            {
                "patchline": {
                    "destination": [ "obj-44", 1 ],
                    "midpoints": [ 248.0, 733.5, 793.231725692749, 733.5 ],
                    "order": 0,
                    "source": [ "obj-55", 0 ]
                }
            },
            {
                "patchline": {
                    "destination": [ "obj-32", 0 ],
                    "midpoints": [ 86.5, 449.0, 248.5, 449.0 ],
                    "order": 0,
                    "source": [ "obj-56", 0 ]
                }
            },
            {
                "patchline": {
                    "destination": [ "obj-33", 0 ],
                    "midpoints": [ 86.5, 405.5, 64.5, 405.5 ],
                    "order": 1,
                    "source": [ "obj-56", 0 ]
                }
            },
            {
                "patchline": {
                    "destination": [ "obj-42", 0 ],
                    "midpoints": [ 86.5, 420.0, 57.5, 420.0 ],
                    "order": 2,
                    "source": [ "obj-56", 0 ]
                }
            },
            {
                "patchline": {
                    "destination": [ "obj-53", 0 ],
                    "midpoints": [ 158.5, 405.5, 221.5, 405.5 ],
                    "source": [ "obj-56", 1 ]
                }
            },
            {
                "patchline": {
                    "destination": [ "obj-58", 0 ],
                    "source": [ "obj-57", 0 ]
                }
            },
            {
                "patchline": {
                    "destination": [ "obj-55", 0 ],
                    "source": [ "obj-6", 0 ]
                }
            },
            {
                "patchline": {
                    "destination": [ "obj-1", 0 ],
                    "source": [ "obj-68", 0 ]
                }
            },
            {
                "patchline": {
                    "destination": [ "obj-56", 0 ],
                    "midpoints": [ 322.5, 152.0, 86.5, 152.0 ],
                    "source": [ "obj-68", 1 ]
                }
            },
            {
                "patchline": {
                    "destination": [ "obj-6", 0 ],
                    "source": [ "obj-7", 0 ]
                }
            },
            {
                "patchline": {
                    "destination": [ "obj-9", 0 ],
                    "source": [ "obj-8", 0 ]
                }
            },
            {
                "patchline": {
                    "destination": [ "obj-26", 0 ],
                    "source": [ "obj-9", 0 ]
                }
            },
            {
                "patchline": {
                    "destination": [ "obj-5", 0 ],
                    "midpoints": [ 384.0, 297.5, 384.5, 297.5 ],
                    "source": [ "obj-9", 1 ]
                }
            }
        ]
    }
}