{
    "patcher": {
        "fileversion": 1,
        "appversion": {
            "major": 9,
            "minor": 1,
            "revision": 1,
            "architecture": "x64",
            "modernui": 1
        },
        "classnamespace": "box",
        "rect": [ 34.0, 77.0, 1639.0, 802.0 ],
        "boxes": [
            {
                "box": {
                    "id": "obj-8",
                    "linecount": 3,
                    "maxclass": "comment",
                    "numinlets": 1,
                    "numoutlets": 0,
                    "patching_rect": [ 175.52136820554733, 237.07281484842304, 297.0, 48.0 ],
                    "text": "This is create with the hooks.template, which includes a muter which mutes all signal processing in this patcher unless it is toggled on."
                }
            },
            {
                "box": {
                    "comment": "",
                    "id": "obj-54",
                    "index": 1,
                    "maxclass": "inlet",
                    "numinlets": 0,
                    "numoutlets": 1,
                    "outlettype": [ "" ],
                    "patching_rect": [ 67.0, 170.0, 30.0, 30.0 ]
                }
            },
            {
                "box": {
                    "id": "obj-52",
                    "maxclass": "newobj",
                    "numinlets": 2,
                    "numoutlets": 1,
                    "outlettype": [ "" ],
                    "patcher": {
                        "fileversion": 1,
                        "appversion": {
                            "major": 9,
                            "minor": 1,
                            "revision": 1,
                            "architecture": "x64",
                            "modernui": 1
                        },
                        "classnamespace": "box",
                        "rect": [ 59.0, 107.0, 640.0, 480.0 ],
                        "boxes": [
                            {
                                "box": {
                                    "id": "obj-139",
                                    "maxclass": "newobj",
                                    "numinlets": 1,
                                    "numoutlets": 1,
                                    "outlettype": [ "bang" ],
                                    "patching_rect": [ 133.0, 100.0, 58.0, 22.0 ],
                                    "text": "loadbang"
                                }
                            },
                            {
                                "box": {
                                    "id": "obj-141",
                                    "maxclass": "message",
                                    "numinlets": 2,
                                    "numoutlets": 1,
                                    "outlettype": [ "" ],
                                    "patching_rect": [ 89.0, 143.0, 29.5, 22.0 ],
                                    "text": "0"
                                }
                            },
                            {
                                "box": {
                                    "id": "obj-142",
                                    "maxclass": "message",
                                    "numinlets": 2,
                                    "numoutlets": 1,
                                    "outlettype": [ "" ],
                                    "patching_rect": [ 50.0, 143.0, 29.5, 22.0 ],
                                    "text": "1"
                                }
                            },
                            {
                                "box": {
                                    "fontname": "Arial",
                                    "fontsize": 13.0,
                                    "id": "obj-144",
                                    "maxclass": "message",
                                    "numinlets": 2,
                                    "numoutlets": 1,
                                    "outlettype": [ "" ],
                                    "patching_rect": [ 50.0, 176.23945603512198, 76.0, 23.0 ],
                                    "text": "enable $1 1"
                                }
                            },
                            {
                                "box": {
                                    "comment": "",
                                    "id": "obj-38",
                                    "index": 1,
                                    "maxclass": "inlet",
                                    "numinlets": 0,
                                    "numoutlets": 1,
                                    "outlettype": [ "bang" ],
                                    "patching_rect": [ 50.000003985698754, 39.99998228671268, 30.0, 30.0 ]
                                }
                            },
                            {
                                "box": {
                                    "comment": "",
                                    "id": "obj-43",
                                    "index": 2,
                                    "maxclass": "inlet",
                                    "numinlets": 0,
                                    "numoutlets": 1,
                                    "outlettype": [ "bang" ],
                                    "patching_rect": [ 89.00000398569875, 39.99998228671268, 30.0, 30.0 ]
                                }
                            },
                            {
                                "box": {
                                    "comment": "",
                                    "id": "obj-51",
                                    "index": 1,
                                    "maxclass": "outlet",
                                    "numinlets": 1,
                                    "numoutlets": 0,
                                    "patching_rect": [ 50.000003985698754, 259.2394842867127, 30.0, 30.0 ]
                                }
                            }
                        ],
                        "lines": [
                            {
                                "patchline": {
                                    "destination": [ "obj-141", 0 ],
                                    "midpoints": [ 142.5, 132.0, 98.5, 132.0 ],
                                    "source": [ "obj-139", 0 ]
                                }
                            },
                            {
                                "patchline": {
                                    "destination": [ "obj-144", 0 ],
                                    "midpoints": [ 98.5, 170.119728017561, 59.5, 170.119728017561 ],
                                    "source": [ "obj-141", 0 ]
                                }
                            },
                            {
                                "patchline": {
                                    "destination": [ "obj-144", 0 ],
                                    "source": [ "obj-142", 0 ]
                                }
                            },
                            {
                                "patchline": {
                                    "destination": [ "obj-51", 0 ],
                                    "source": [ "obj-144", 0 ]
                                }
                            },
                            {
                                "patchline": {
                                    "destination": [ "obj-142", 0 ],
                                    "source": [ "obj-38", 0 ]
                                }
                            },
                            {
                                "patchline": {
                                    "destination": [ "obj-141", 0 ],
                                    "source": [ "obj-43", 0 ]
                                }
                            }
                        ]
                    },
                    "patching_rect": [ 67.0, 237.07281484842304, 49.0, 22.0 ],
                    "text": "p muter"
                }
            },
            {
                "box": {
                    "id": "obj-37",
                    "linecount": 4,
                    "maxclass": "comment",
                    "numinlets": 1,
                    "numoutlets": 0,
                    "patching_rect": [ 175.52136820554733, 300.5131249690056, 168.0, 62.0 ],
                    "text": "Give this subpatcher a name,\nThis name act as the unique identifier of your abstraction. see inside how it works"
                }
            },
            {
                "box": {
                    "comment": "",
                    "id": "obj-53",
                    "index": 1,
                    "maxclass": "outlet",
                    "numinlets": 1,
                    "numoutlets": 0,
                    "patching_rect": [ 67.0, 376.96197237968454, 30.0, 30.0 ]
                }
            },
            {
                "box": {
                    "id": "obj-138",
                    "maxclass": "newobj",
                    "numinlets": 2,
                    "numoutlets": 3,
                    "outlettype": [ "multichannelsignal", "bang", "bang" ],
                    "patcher": {
                        "fileversion": 1,
                        "appversion": {
                            "major": 9,
                            "minor": 1,
                            "revision": 1,
                            "architecture": "x64",
                            "modernui": 1
                        },
                        "classnamespace": "box",
                        "rect": [ -162.0, 169.0, 1639.0, 802.0 ],
                        "globalpatchername": "tab-1/example-filter",
                        "boxes": [
                            {
                                "box": {
                                    "id": "obj-13",
                                    "linecount": 3,
                                    "maxclass": "comment",
                                    "numinlets": 1,
                                    "numoutlets": 0,
                                    "patching_rect": [ 156.0, 692.278015, 181.0, 48.0 ],
                                    "text": "This fade in out subpatcher mutes the patcher only after the sound is completely faded out."
                                }
                            },
                            {
                                "box": {
                                    "id": "obj-11",
                                    "linecount": 3,
                                    "maxclass": "comment",
                                    "numinlets": 1,
                                    "numoutlets": 0,
                                    "patching_rect": [ 646.0, 582.0, 127.0, 48.0 ],
                                    "text": "Hooks Pattr\nHou Lam Wu (Eagle)\n2023-2026",
                                    "textjustification": 2
                                }
                            },
                            {
                                "box": {
                                    "id": "obj-67",
                                    "maxclass": "newobj",
                                    "numinlets": 1,
                                    "numoutlets": 2,
                                    "outlettype": [ "", "" ],
                                    "patching_rect": [ 426.0, 590.0, 72.0, 22.0 ],
                                    "text": "patcherargs"
                                }
                            },
                            {
                                "box": {
                                    "id": "obj-10",
                                    "maxclass": "newobj",
                                    "numinlets": 3,
                                    "numoutlets": 5,
                                    "outlettype": [ "", "", "", "", "" ],
                                    "patching_rect": [ 426.0, 620.0, 187.95145446062088, 22.0 ],
                                    "text": "hooks.functions #1"
                                }
                            },
                            {
                                "box": {
                                    "id": "obj-22",
                                    "linecount": 3,
                                    "maxclass": "comment",
                                    "numinlets": 1,
                                    "numoutlets": 0,
                                    "patching_rect": [ 544.0, 669.0, 229.1262104511261, 48.0 ],
                                    "text": "Connects Pattr and Line Objects with preformatted receive objects and allow faster access with Hook-Helper",
                                    "textjustification": 2
                                }
                            },
                            {
                                "box": {
                                    "id": "obj-35",
                                    "maxclass": "newobj",
                                    "numinlets": 1,
                                    "numoutlets": 2,
                                    "outlettype": [ "", "" ],
                                    "patching_rect": [ 436.0, 645.0, 67.0, 22.0 ],
                                    "save": [ "#N", "thispatcher", ";", "#Q", "end", ";" ],
                                    "text": "thispatcher"
                                }
                            },
                            {
                                "box": {
                                    "id": "obj-101",
                                    "maxclass": "newobj",
                                    "numinlets": 2,
                                    "numoutlets": 2,
                                    "outlettype": [ "", "" ],
                                    "patching_rect": [ 426.0, 695.0, 77.0, 22.0 ],
                                    "text": "hooks.loader"
                                }
                            },
                            {
                                "box": {
                                    "id": "obj-25",
                                    "maxclass": "newobj",
                                    "numinlets": 1,
                                    "numoutlets": 2,
                                    "outlettype": [ "", "" ],
                                    "patching_rect": [ 561.0, 590.0, 53.0, 22.0 ],
                                    "text": "pattrhub"
                                }
                            },
                            {
                                "box": {
                                    "id": "obj-43",
                                    "maxclass": "newobj",
                                    "numinlets": 1,
                                    "numoutlets": 1,
                                    "outlettype": [ "" ],
                                    "patching_rect": [ 507.0, 695.0, 70.0, 22.0 ],
                                    "text": "pattrmarker"
                                }
                            },
                            {
                                "box": {
                                    "id": "obj-64",
                                    "maxclass": "newobj",
                                    "numinlets": 1,
                                    "numoutlets": 1,
                                    "outlettype": [ "" ],
                                    "patching_rect": [ 426.0, 672.0, 135.0, 22.0 ],
                                    "saved_object_attributes": {
                                        "client_rect": [ 100, 134, 454, 262 ],
                                        "parameter_enable": 0,
                                        "parameter_mappable": 0,
                                        "storage_rect": [ 583, 69, 1034, 197 ]
                                    },
                                    "text": "pattrstorage @greedy 2",
                                    "varname": "#1-sub"
                                }
                            },
                            {
                                "box": {
                                    "attr": "name",
                                    "id": "obj-69",
                                    "maxclass": "attrui",
                                    "numinlets": 1,
                                    "numoutlets": 1,
                                    "outlettype": [ "" ],
                                    "parameter_enable": 0,
                                    "patching_rect": [ 507.0, 645.0, 266.3004574775696, 22.0 ]
                                }
                            },
                            {
                                "box": {
                                    "id": "obj-21",
                                    "maxclass": "newobj",
                                    "numinlets": 0,
                                    "numoutlets": 1,
                                    "outlettype": [ "" ],
                                    "patching_rect": [ 501.0, 590.0, 78.0, 22.0 ],
                                    "text": "r hooks/reset"
                                }
                            },
                            {
                                "box": {
                                    "angle": 270.0,
                                    "bgcolor": [ 1.0, 1.0, 1.0, 0.47 ],
                                    "id": "obj-28",
                                    "maxclass": "panel",
                                    "mode": 0,
                                    "numinlets": 1,
                                    "numoutlets": 0,
                                    "patching_rect": [ 419.0, 579.0, 359.223296046257, 143.2038815319538 ],
                                    "proportion": 0.5
                                }
                            },
                            {
                                "box": {
                                    "id": "obj-102",
                                    "linecount": 2,
                                    "maxclass": "comment",
                                    "numinlets": 1,
                                    "numoutlets": 0,
                                    "patching_rect": [ 245.0, 109.0, 427.0, 34.0 ],
                                    "text": "You can add other argument numbers after #1. The second argument in this example is channel number, I just add this here because of mc objects."
                                }
                            },
                            {
                                "box": {
                                    "id": "obj-99",
                                    "maxclass": "newobj",
                                    "numinlets": 1,
                                    "numoutlets": 1,
                                    "outlettype": [ "" ],
                                    "patching_rect": [ 163.0, 109.0, 77.0, 22.0 ],
                                    "text": "loadmess #2"
                                }
                            },
                            {
                                "box": {
                                    "fontface": 1,
                                    "id": "obj-94",
                                    "linecount": 2,
                                    "maxclass": "comment",
                                    "numinlets": 1,
                                    "numoutlets": 0,
                                    "patching_rect": [ 417.0, 734.0, 385.0000000000001, 34.0 ],
                                    "text": "The first argument #1 of the patcher is always the instance name, you can set #1 here to another number if required"
                                }
                            },
                            {
                                "box": {
                                    "id": "obj-92",
                                    "linecount": 5,
                                    "maxclass": "comment",
                                    "numinlets": 1,
                                    "numoutlets": 0,
                                    "patching_rect": [ 419.0, 507.4711772012711, 426.0, 75.0 ],
                                    "text": "This is from the snippet hooks.marker, basically you can just paste and forget.\nThis can only work inside a subpatcher with a name.\neverything here can be accessed through hooks.helper\nYou can change the \"rp\" poly patcher to add different functionalities\nRefer to the patcher outside of this example"
                                }
                            },
                            {
                                "box": {
                                    "fontface": 1,
                                    "id": "obj-91",
                                    "maxclass": "comment",
                                    "numinlets": 1,
                                    "numoutlets": 0,
                                    "patching_rect": [ 302.0, 231.72786462306976, 208.0, 20.0 ],
                                    "text": "Attach pattr objects with a name"
                                }
                            },
                            {
                                "box": {
                                    "id": "obj-87",
                                    "linecount": 2,
                                    "maxclass": "comment",
                                    "numinlets": 1,
                                    "numoutlets": 0,
                                    "patching_rect": [ 163.0, 40.0, 247.0, 34.0 ],
                                    "text": "This is a simple bandpass filter with controllable spread frequency and q values"
                                }
                            },
                            {
                                "box": {
                                    "id": "obj-78",
                                    "maxclass": "newobj",
                                    "numinlets": 1,
                                    "numoutlets": 3,
                                    "outlettype": [ "", "", "" ],
                                    "patching_rect": [ 71.0, 533.9711772012711, 115.0, 22.0 ],
                                    "saved_object_attributes": {
                                        "initial": [ 1.0 ],
                                        "parameter_enable": 0,
                                        "parameter_mappable": 0
                                    },
                                    "text": "pattr gain @initial 1.",
                                    "varname": "gain"
                                }
                            },
                            {
                                "box": {
                                    "id": "obj-77",
                                    "maxclass": "newobj",
                                    "numinlets": 2,
                                    "numoutlets": 1,
                                    "outlettype": [ "multichannelsignal" ],
                                    "patching_rect": [ 50.0, 595.0, 40.0, 22.0 ],
                                    "text": "mc.*~"
                                }
                            },
                            {
                                "box": {
                                    "id": "obj-75",
                                    "maxclass": "newobj",
                                    "numinlets": 1,
                                    "numoutlets": 3,
                                    "outlettype": [ "", "", "" ],
                                    "patching_rect": [ 65.33333333333334, 364.9711772012711, 145.0, 22.0 ],
                                    "saved_object_attributes": {
                                        "initial": [ 1.0 ],
                                        "parameter_enable": 0,
                                        "parameter_mappable": 0
                                    },
                                    "text": "pattr input-gain @initial 1.",
                                    "varname": "input-gain"
                                }
                            },
                            {
                                "box": {
                                    "id": "obj-74",
                                    "maxclass": "newobj",
                                    "numinlets": 1,
                                    "numoutlets": 1,
                                    "outlettype": [ "" ],
                                    "patching_rect": [ 302.0, 290.3373349905014, 32.0, 22.0 ],
                                    "text": "mtof"
                                }
                            },
                            {
                                "box": {
                                    "id": "obj-73",
                                    "maxclass": "newobj",
                                    "numinlets": 1,
                                    "numoutlets": 1,
                                    "outlettype": [ "" ],
                                    "patching_rect": [ 363.0, 290.3373349905014, 32.0, 22.0 ],
                                    "text": "mtof"
                                }
                            },
                            {
                                "box": {
                                    "id": "obj-59",
                                    "maxclass": "newobj",
                                    "numinlets": 1,
                                    "numoutlets": 2,
                                    "outlettype": [ "", "int" ],
                                    "patching_rect": [ 241.0, 351.09775547027584, 35.0, 22.0 ],
                                    "text": "t l 20"
                                }
                            },
                            {
                                "box": {
                                    "id": "obj-60",
                                    "maxclass": "newobj",
                                    "numinlets": 1,
                                    "numoutlets": 3,
                                    "outlettype": [ "", "", "" ],
                                    "patching_rect": [ 302.0, 256.9878966986007, 71.0, 22.0 ],
                                    "restore": [ 31.2168 ],
                                    "saved_object_attributes": {
                                        "parameter_enable": 0,
                                        "parameter_mappable": 0
                                    },
                                    "text": "pattr midi-lo",
                                    "varname": "midi-lo"
                                }
                            },
                            {
                                "box": {
                                    "id": "obj-62",
                                    "maxclass": "newobj",
                                    "numinlets": 3,
                                    "numoutlets": 1,
                                    "outlettype": [ "" ],
                                    "patching_rect": [ 241.0, 320.09775547027584, 141.0, 22.0 ],
                                    "text": "pak spreadinclusive 0. 1."
                                }
                            },
                            {
                                "box": {
                                    "id": "obj-63",
                                    "maxclass": "newobj",
                                    "numinlets": 2,
                                    "numoutlets": 3,
                                    "outlettype": [ "multichannelsignal", "", "" ],
                                    "patching_rect": [ 241.0, 382.0, 54.0, 22.0 ],
                                    "text": "mc.line~"
                                }
                            },
                            {
                                "box": {
                                    "id": "obj-65",
                                    "maxclass": "newobj",
                                    "numinlets": 1,
                                    "numoutlets": 3,
                                    "outlettype": [ "", "", "" ],
                                    "patching_rect": [ 363.0, 256.9878966986007, 71.0, 22.0 ],
                                    "restore": [ 64.7644 ],
                                    "saved_object_attributes": {
                                        "parameter_enable": 0,
                                        "parameter_mappable": 0
                                    },
                                    "text": "pattr midi-hi",
                                    "varname": "midi-hi"
                                }
                            },
                            {
                                "box": {
                                    "id": "obj-56",
                                    "maxclass": "newobj",
                                    "numinlets": 1,
                                    "numoutlets": 2,
                                    "outlettype": [ "", "int" ],
                                    "patching_rect": [ 404.0, 351.09775547027584, 35.0, 22.0 ],
                                    "text": "t l 20"
                                }
                            },
                            {
                                "box": {
                                    "id": "obj-51",
                                    "maxclass": "newobj",
                                    "numinlets": 1,
                                    "numoutlets": 3,
                                    "outlettype": [ "", "", "" ],
                                    "patching_rect": [ 465.0, 260.9878966986007, 56.0, 22.0 ],
                                    "restore": [ 0.2 ],
                                    "saved_object_attributes": {
                                        "parameter_enable": 0,
                                        "parameter_mappable": 0
                                    },
                                    "text": "pattr q-lo",
                                    "varname": "q-lo"
                                }
                            },
                            {
                                "box": {
                                    "id": "obj-36",
                                    "maxclass": "newobj",
                                    "numinlets": 3,
                                    "numoutlets": 1,
                                    "outlettype": [ "" ],
                                    "patching_rect": [ 404.0, 320.09775547027584, 141.0, 22.0 ],
                                    "text": "pak spreadinclusive 0. 1."
                                }
                            },
                            {
                                "box": {
                                    "id": "obj-17",
                                    "maxclass": "newobj",
                                    "numinlets": 2,
                                    "numoutlets": 3,
                                    "outlettype": [ "multichannelsignal", "", "" ],
                                    "patching_rect": [ 404.0, 382.0, 54.0, 22.0 ],
                                    "text": "mc.line~"
                                }
                            },
                            {
                                "box": {
                                    "id": "obj-15",
                                    "maxclass": "newobj",
                                    "numinlets": 1,
                                    "numoutlets": 3,
                                    "outlettype": [ "", "", "" ],
                                    "patching_rect": [ 526.0, 260.9878966986007, 56.0, 22.0 ],
                                    "restore": [ 0.4661 ],
                                    "saved_object_attributes": {
                                        "parameter_enable": 0,
                                        "parameter_mappable": 0
                                    },
                                    "text": "pattr q-hi",
                                    "varname": "q-hi"
                                }
                            },
                            {
                                "box": {
                                    "id": "obj-12",
                                    "maxclass": "newobj",
                                    "numinlets": 4,
                                    "numoutlets": 1,
                                    "outlettype": [ "multichannelsignal" ],
                                    "patching_rect": [ 50.0, 452.0, 65.0, 22.0 ],
                                    "text": "mc.reson~"
                                }
                            },
                            {
                                "box": {
                                    "id": "obj-9",
                                    "maxclass": "newobj",
                                    "numinlets": 2,
                                    "numoutlets": 1,
                                    "outlettype": [ "int" ],
                                    "patching_rect": [ 85.5, 651.278015, 29.5, 22.0 ],
                                    "text": "i"
                                }
                            },
                            {
                                "box": {
                                    "id": "obj-5",
                                    "maxclass": "newobj",
                                    "numinlets": 1,
                                    "numoutlets": 3,
                                    "outlettype": [ "", "", "" ],
                                    "patching_rect": [ 85.5, 619.0, 214.0, 22.0 ],
                                    "saved_object_attributes": {
                                        "initial": [ 0 ],
                                        "parameter_enable": 0,
                                        "parameter_mappable": 0
                                    },
                                    "text": "pattr toggle @initial 0 @min 0 @max 1",
                                    "varname": "toggle"
                                }
                            },
                            {
                                "box": {
                                    "comment": "toggle",
                                    "id": "obj-7",
                                    "index": 2,
                                    "maxclass": "inlet",
                                    "numinlets": 0,
                                    "numoutlets": 1,
                                    "outlettype": [ "" ],
                                    "patching_rect": [ 85.5, 40.0, 30.0, 30.0 ]
                                }
                            },
                            {
                                "box": {
                                    "id": "obj-6",
                                    "maxclass": "comment",
                                    "numinlets": 1,
                                    "numoutlets": 0,
                                    "patching_rect": [ 50.0, 208.0, 150.0, 20.0 ],
                                    "text": "Insert Effects / Synth Here"
                                }
                            },
                            {
                                "box": {
                                    "comment": "Fade Out Done Bang",
                                    "id": "obj-2",
                                    "index": 3,
                                    "maxclass": "outlet",
                                    "numinlets": 1,
                                    "numoutlets": 0,
                                    "patching_rect": [ 121.0, 743.278015, 30.0, 30.0 ]
                                }
                            },
                            {
                                "box": {
                                    "comment": "Fade In Start Bang",
                                    "id": "obj-1",
                                    "index": 2,
                                    "maxclass": "outlet",
                                    "numinlets": 1,
                                    "numoutlets": 0,
                                    "patching_rect": [ 85.5, 743.278015, 30.0, 30.0 ]
                                }
                            },
                            {
                                "box": {
                                    "id": "obj-3",
                                    "maxclass": "newobj",
                                    "numinlets": 1,
                                    "numoutlets": 3,
                                    "outlettype": [ "", "", "" ],
                                    "patching_rect": [ 121.0, 651.278015, 238.0, 22.0 ],
                                    "saved_object_attributes": {
                                        "initial": [ 5000 ],
                                        "parameter_enable": 0,
                                        "parameter_mappable": 0
                                    },
                                    "text": "pattr fade-in-out-time @initial 5000 @min 0",
                                    "varname": "fade-in-out-time"
                                }
                            },
                            {
                                "box": {
                                    "id": "obj-4",
                                    "maxclass": "newobj",
                                    "numinlets": 3,
                                    "numoutlets": 4,
                                    "outlettype": [ "multichannelsignal", "bang", "bang", "int" ],
                                    "patching_rect": [ 50.0, 692.278015, 74.0, 22.0 ],
                                    "text": "hooks.fade~"
                                }
                            },
                            {
                                "box": {
                                    "comment": "Signal In / pcontrol in",
                                    "id": "obj-135",
                                    "index": 1,
                                    "maxclass": "inlet",
                                    "numinlets": 0,
                                    "numoutlets": 1,
                                    "outlettype": [ "" ],
                                    "patching_rect": [ 50.0, 40.0, 30.0, 30.0 ]
                                }
                            },
                            {
                                "box": {
                                    "comment": "Signal Out",
                                    "id": "obj-136",
                                    "index": 1,
                                    "maxclass": "outlet",
                                    "numinlets": 1,
                                    "numoutlets": 0,
                                    "patching_rect": [ 50.0, 743.278015, 30.0, 30.0 ]
                                }
                            },
                            {
                                "box": {
                                    "attr": "chans",
                                    "id": "obj-98",
                                    "maxclass": "attrui",
                                    "numinlets": 1,
                                    "numoutlets": 1,
                                    "outlettype": [ "" ],
                                    "parameter_enable": 0,
                                    "patching_rect": [ 163.0, 152.0, 150.0, 22.0 ]
                                }
                            }
                        ],
                        "lines": [
                            {
                                "patchline": {
                                    "destination": [ "obj-101", 1 ],
                                    "midpoints": [ 477.7378636151552, 682.0, 493.5, 682.0 ],
                                    "source": [ "obj-10", 1 ]
                                }
                            },
                            {
                                "patchline": {
                                    "destination": [ "obj-25", 0 ],
                                    "midpoints": [ 604.4514544606209, 643.2621360421181, 628.4485164582729, 643.2621360421181, 628.4485164582729, 585.9041841030121, 570.5, 585.9041841030121 ],
                                    "source": [ "obj-10", 4 ]
                                }
                            },
                            {
                                "patchline": {
                                    "destination": [ "obj-35", 0 ],
                                    "midpoints": [ 519.9757272303104, 643.0, 445.5, 643.0 ],
                                    "source": [ "obj-10", 2 ]
                                }
                            },
                            {
                                "patchline": {
                                    "destination": [ "obj-64", 0 ],
                                    "midpoints": [ 435.5, 649.894594669342, 435.5, 649.894594669342 ],
                                    "source": [ "obj-10", 0 ]
                                }
                            },
                            {
                                "patchline": {
                                    "destination": [ "obj-69", 0 ],
                                    "midpoints": [ 562.2135908454657, 643.5044692605734, 516.5, 643.5044692605734 ],
                                    "source": [ "obj-10", 3 ]
                                }
                            },
                            {
                                "patchline": {
                                    "destination": [ "obj-77", 0 ],
                                    "source": [ "obj-12", 0 ]
                                }
                            },
                            {
                                "patchline": {
                                    "destination": [ "obj-12", 0 ],
                                    "source": [ "obj-135", 0 ]
                                }
                            },
                            {
                                "patchline": {
                                    "destination": [ "obj-36", 2 ],
                                    "source": [ "obj-15", 0 ]
                                }
                            },
                            {
                                "patchline": {
                                    "destination": [ "obj-12", 3 ],
                                    "midpoints": [ 413.5, 434.0, 105.5, 434.0 ],
                                    "source": [ "obj-17", 0 ]
                                }
                            },
                            {
                                "patchline": {
                                    "destination": [ "obj-67", 0 ],
                                    "midpoints": [ 510.5, 622.0, 493.69864462316036, 622.0, 493.69864462316036, 582.0, 435.5, 582.0 ],
                                    "source": [ "obj-21", 0 ]
                                }
                            },
                            {
                                "patchline": {
                                    "destination": [ "obj-10", 2 ],
                                    "midpoints": [ 604.5, 616.0394707322121, 604.4514544606209, 616.0394707322121 ],
                                    "source": [ "obj-25", 1 ]
                                }
                            },
                            {
                                "patchline": {
                                    "destination": [ "obj-4", 2 ],
                                    "midpoints": [ 130.5, 680.278015, 114.5, 680.278015 ],
                                    "source": [ "obj-3", 0 ]
                                }
                            },
                            {
                                "patchline": {
                                    "destination": [ "obj-56", 0 ],
                                    "source": [ "obj-36", 0 ]
                                }
                            },
                            {
                                "patchline": {
                                    "destination": [ "obj-1", 0 ],
                                    "source": [ "obj-4", 1 ]
                                }
                            },
                            {
                                "patchline": {
                                    "destination": [ "obj-136", 0 ],
                                    "source": [ "obj-4", 0 ]
                                }
                            },
                            {
                                "patchline": {
                                    "destination": [ "obj-2", 0 ],
                                    "source": [ "obj-4", 2 ]
                                }
                            },
                            {
                                "patchline": {
                                    "destination": [ "obj-5", 0 ],
                                    "midpoints": [ 114.5, 724.278015, 154.75, 724.278015, 154.75, 609.0, 95.0, 609.0 ],
                                    "source": [ "obj-4", 3 ]
                                }
                            },
                            {
                                "patchline": {
                                    "destination": [ "obj-9", 0 ],
                                    "source": [ "obj-5", 0 ]
                                }
                            },
                            {
                                "patchline": {
                                    "destination": [ "obj-36", 1 ],
                                    "source": [ "obj-51", 0 ]
                                }
                            },
                            {
                                "patchline": {
                                    "destination": [ "obj-17", 1 ],
                                    "midpoints": [ 429.5, 377.0488777351379, 448.5, 377.0488777351379 ],
                                    "source": [ "obj-56", 1 ]
                                }
                            },
                            {
                                "patchline": {
                                    "destination": [ "obj-17", 0 ],
                                    "source": [ "obj-56", 0 ]
                                }
                            },
                            {
                                "patchline": {
                                    "destination": [ "obj-63", 1 ],
                                    "midpoints": [ 266.5, 377.0488777351379, 285.5, 377.0488777351379 ],
                                    "source": [ "obj-59", 1 ]
                                }
                            },
                            {
                                "patchline": {
                                    "destination": [ "obj-63", 0 ],
                                    "source": [ "obj-59", 0 ]
                                }
                            },
                            {
                                "patchline": {
                                    "destination": [ "obj-74", 0 ],
                                    "source": [ "obj-60", 0 ]
                                }
                            },
                            {
                                "patchline": {
                                    "destination": [ "obj-59", 0 ],
                                    "source": [ "obj-62", 0 ]
                                }
                            },
                            {
                                "patchline": {
                                    "destination": [ "obj-12", 2 ],
                                    "midpoints": [ 250.5, 413.5, 90.16666666666667, 413.5 ],
                                    "source": [ "obj-63", 0 ]
                                }
                            },
                            {
                                "patchline": {
                                    "destination": [ "obj-10", 1 ],
                                    "midpoints": [ 435.5, 700.0, 421.73948291937506, 700.0, 421.73948291937506, 610.0, 519.9757272303104, 610.0 ],
                                    "order": 0,
                                    "source": [ "obj-64", 0 ]
                                }
                            },
                            {
                                "patchline": {
                                    "destination": [ "obj-101", 0 ],
                                    "order": 1,
                                    "source": [ "obj-64", 0 ]
                                }
                            },
                            {
                                "patchline": {
                                    "destination": [ "obj-73", 0 ],
                                    "source": [ "obj-65", 0 ]
                                }
                            },
                            {
                                "patchline": {
                                    "destination": [ "obj-10", 0 ],
                                    "source": [ "obj-67", 0 ]
                                }
                            },
                            {
                                "patchline": {
                                    "destination": [ "obj-43", 0 ],
                                    "midpoints": [ 516.5, 644.8289440274239 ],
                                    "source": [ "obj-69", 0 ]
                                }
                            },
                            {
                                "patchline": {
                                    "destination": [ "obj-5", 0 ],
                                    "source": [ "obj-7", 0 ]
                                }
                            },
                            {
                                "patchline": {
                                    "destination": [ "obj-62", 2 ],
                                    "source": [ "obj-73", 0 ]
                                }
                            },
                            {
                                "patchline": {
                                    "destination": [ "obj-62", 1 ],
                                    "source": [ "obj-74", 0 ]
                                }
                            },
                            {
                                "patchline": {
                                    "destination": [ "obj-12", 1 ],
                                    "source": [ "obj-75", 0 ]
                                }
                            },
                            {
                                "patchline": {
                                    "destination": [ "obj-4", 0 ],
                                    "source": [ "obj-77", 0 ]
                                }
                            },
                            {
                                "patchline": {
                                    "destination": [ "obj-77", 1 ],
                                    "source": [ "obj-78", 0 ]
                                }
                            },
                            {
                                "patchline": {
                                    "destination": [ "obj-4", 1 ],
                                    "source": [ "obj-9", 0 ]
                                }
                            },
                            {
                                "patchline": {
                                    "destination": [ "obj-12", 0 ],
                                    "midpoints": [ 172.5, 312.5, 59.5, 312.5 ],
                                    "order": 2,
                                    "source": [ "obj-98", 0 ]
                                }
                            },
                            {
                                "patchline": {
                                    "destination": [ "obj-17", 0 ],
                                    "midpoints": [ 172.5, 379.5, 413.5, 379.5 ],
                                    "order": 0,
                                    "source": [ "obj-98", 0 ]
                                }
                            },
                            {
                                "patchline": {
                                    "destination": [ "obj-63", 0 ],
                                    "midpoints": [ 172.5, 381.5, 250.5, 381.5 ],
                                    "order": 1,
                                    "source": [ "obj-98", 0 ]
                                }
                            },
                            {
                                "patchline": {
                                    "destination": [ "obj-98", 0 ],
                                    "source": [ "obj-99", 0 ]
                                }
                            }
                        ]
                    },
                    "patching_rect": [ 67.0, 300.5131249690056, 91.0, 22.0 ],
                    "saved_object_attributes": {
                        "globalpatchername": "tab-1/example-filter"
                    },
                    "text": "p example-filter",
                    "varname": "patcher"
                }
            },
            {
                "box": {
                    "fontname": "Arial",
                    "fontsize": 13.0,
                    "id": "obj-143",
                    "maxclass": "newobj",
                    "numinlets": 1,
                    "numoutlets": 1,
                    "outlettype": [ "" ],
                    "patching_rect": [ 67.0, 266.5327332150192, 58.0, 23.0 ],
                    "text": "pcontrol"
                }
            }
        ],
        "lines": [
            {
                "patchline": {
                    "destination": [ "obj-52", 1 ],
                    "midpoints": [ 148.5, 332.5131249690056, 133.12820518016815, 332.5131249690056, 133.12820518016815, 226.07281484842304, 106.5, 226.07281484842304 ],
                    "source": [ "obj-138", 2 ]
                }
            },
            {
                "patchline": {
                    "destination": [ "obj-52", 0 ],
                    "midpoints": [ 112.5, 332.5131249690056, 60.60897409915924, 332.5131249690056, 60.60897409915924, 226.07281484842304, 76.5, 226.07281484842304 ],
                    "source": [ "obj-138", 1 ]
                }
            },
            {
                "patchline": {
                    "destination": [ "obj-53", 0 ],
                    "source": [ "obj-138", 0 ]
                }
            },
            {
                "patchline": {
                    "destination": [ "obj-138", 0 ],
                    "source": [ "obj-143", 0 ]
                }
            },
            {
                "patchline": {
                    "destination": [ "obj-143", 0 ],
                    "source": [ "obj-52", 0 ]
                }
            },
            {
                "patchline": {
                    "destination": [ "obj-138", 0 ],
                    "source": [ "obj-54", 0 ]
                }
            }
        ]
    }
}